<svg width="350" height="350" xmlns="http://www.w3.org/2000/svg" xmlns:xlink="http://www.w3.org/1999/xlink">
 <defs>
  <rect height="8" width="8" id="p"/>
 </defs>
 <g>
  <title>Layer 1</title>
  <rect id="svg_1" fill="#ffffff" height="232" width="232" y="59" x="59"/>
  <g id="svg_2" fill="#000000">
   <use id="svg_3" y="91" x="91" xlink:href="#p"/>
   <use id="svg_4" y="99" x="91" xlink:href="#p"/>
   <use id="svg_5" y="107" x="91" xlink:href="#p"/>
   <use id="svg_6" y="115" x="91" xlink:href="#p"/>
   <use id="svg_7" y="123" x="91" xlink:href="#p"/>
   <use id="svg_8" y="131" x="91" xlink:href="#p"/>
   <use id="svg_9" y="139" x="91" xlink:href="#p"/>
   <use id="svg_10" y="155" x="91" xlink:href="#p"/>
   <use id="svg_11" y="171" x="91" xlink:href="#p"/>
   <use id="svg_12" y="179" x="91" xlink:href="#p"/>
   <use id="svg_13" y="187" x="91" xlink:href="#p"/>
   <use id="svg_14" y="203" x="91" xlink:href="#p"/>
   <use id="svg_15" y="211" x="91" xlink:href="#p"/>
   <use id="svg_16" y="219" x="91" xlink:href="#p"/>
   <use id="svg_17" y="227" x="91" xlink:href="#p"/>
   <use id="svg_18" y="235" x="91" xlink:href="#p"/>
   <use id="svg_19" y="243" x="91" xlink:href="#p"/>
   <use id="svg_20" y="251" x="91" xlink:href="#p"/>
   <use id="svg_21" y="91" x="99" xlink:href="#p"/>
   <use id="svg_22" y="139" x="99" xlink:href="#p"/>
   <use id="svg_23" y="155" x="99" xlink:href="#p"/>
   <use id="svg_24" y="163" x="99" xlink:href="#p"/>
   <use id="svg_25" y="171" x="99" xlink:href="#p"/>
   <use id="svg_26" y="203" x="99" xlink:href="#p"/>
   <use id="svg_27" y="251" x="99" xlink:href="#p"/>
   <use id="svg_28" y="91" x="107" xlink:href="#p"/>
   <use id="svg_29" y="107" x="107" xlink:href="#p"/>
   <use id="svg_30" y="115" x="107" xlink:href="#p"/>
   <use id="svg_31" y="123" x="107" xlink:href="#p"/>
   <use id="svg_32" y="139" x="107" xlink:href="#p"/>
   <use id="svg_33" y="155" x="107" xlink:href="#p"/>
   <use id="svg_34" y="179" x="107" xlink:href="#p"/>
   <use id="svg_35" y="187" x="107" xlink:href="#p"/>
   <use id="svg_36" y="203" x="107" xlink:href="#p"/>
   <use id="svg_37" y="219" x="107" xlink:href="#p"/>
   <use id="svg_38" y="227" x="107" xlink:href="#p"/>
   <use id="svg_39" y="235" x="107" xlink:href="#p"/>
   <use id="svg_40" y="251" x="107" xlink:href="#p"/>
   <use id="svg_41" y="91" x="115" xlink:href="#p"/>
   <use id="svg_42" y="107" x="115" xlink:href="#p"/>
   <use id="svg_43" y="115" x="115" xlink:href="#p"/>
   <use id="svg_44" y="123" x="115" xlink:href="#p"/>
   <use id="svg_45" y="139" x="115" xlink:href="#p"/>
   <use id="svg_46" y="155" x="115" xlink:href="#p"/>
   <use id="svg_47" y="179" x="115" xlink:href="#p"/>
   <use id="svg_48" y="203" x="115" xlink:href="#p"/>
   <use id="svg_49" y="219" x="115" xlink:href="#p"/>
   <use id="svg_50" y="227" x="115" xlink:href="#p"/>
   <use id="svg_51" y="235" x="115" xlink:href="#p"/>
   <use id="svg_52" y="251" x="115" xlink:href="#p"/>
   <use id="svg_53" y="91" x="123" xlink:href="#p"/>
   <use id="svg_54" y="107" x="123" xlink:href="#p"/>
   <use id="svg_55" y="115" x="123" xlink:href="#p"/>
   <use id="svg_56" y="123" x="123" xlink:href="#p"/>
   <use id="svg_57" y="139" x="123" xlink:href="#p"/>
   <use id="svg_58" y="179" x="123" xlink:href="#p"/>
   <use id="svg_59" y="187" x="123" xlink:href="#p"/>
   <use id="svg_60" y="203" x="123" xlink:href="#p"/>
   <use id="svg_61" y="219" x="123" xlink:href="#p"/>
   <use id="svg_62" y="227" x="123" xlink:href="#p"/>
   <use id="svg_63" y="235" x="123" xlink:href="#p"/>
   <use id="svg_64" y="251" x="123" xlink:href="#p"/>
   <use id="svg_65" y="91" x="131" xlink:href="#p"/>
   <use id="svg_66" y="139" x="131" xlink:href="#p"/>
   <use id="svg_67" y="163" x="131" xlink:href="#p"/>
   <use id="svg_68" y="203" x="131" xlink:href="#p"/>
   <use id="svg_69" y="251" x="131" xlink:href="#p"/>
   <use id="svg_70" y="91" x="139" xlink:href="#p"/>
   <use id="svg_71" y="99" x="139" xlink:href="#p"/>
   <use id="svg_72" y="107" x="139" xlink:href="#p"/>
   <use id="svg_73" y="115" x="139" xlink:href="#p"/>
   <use id="svg_74" y="123" x="139" xlink:href="#p"/>
   <use id="svg_75" y="131" x="139" xlink:href="#p"/>
   <use id="svg_76" y="139" x="139" xlink:href="#p"/>
   <use id="svg_77" y="155" x="139" xlink:href="#p"/>
   <use id="svg_78" y="171" x="139" xlink:href="#p"/>
   <use id="svg_79" y="187" x="139" xlink:href="#p"/>
   <use id="svg_80" y="203" x="139" xlink:href="#p"/>
   <use id="svg_81" y="211" x="139" xlink:href="#p"/>
   <use id="svg_82" y="219" x="139" xlink:href="#p"/>
   <use id="svg_83" y="227" x="139" xlink:href="#p"/>
   <use id="svg_84" y="235" x="139" xlink:href="#p"/>
   <use id="svg_85" y="243" x="139" xlink:href="#p"/>
   <use id="svg_86" y="251" x="139" xlink:href="#p"/>
   <use id="svg_87" y="163" x="147" xlink:href="#p"/>
   <use id="svg_88" y="171" x="147" xlink:href="#p"/>
   <use id="svg_89" y="179" x="147" xlink:href="#p"/>
   <use id="svg_90" y="187" x="147" xlink:href="#p"/>
   <use id="svg_91" y="91" x="155" xlink:href="#p"/>
   <use id="svg_92" y="107" x="155" xlink:href="#p"/>
   <use id="svg_93" y="115" x="155" xlink:href="#p"/>
   <use id="svg_94" y="123" x="155" xlink:href="#p"/>
   <use id="svg_95" y="139" x="155" xlink:href="#p"/>
   <use id="svg_96" y="155" x="155" xlink:href="#p"/>
   <use id="svg_97" y="171" x="155" xlink:href="#p"/>
   <use id="svg_98" y="195" x="155" xlink:href="#p"/>
   <use id="svg_99" y="227" x="155" xlink:href="#p"/>
   <use id="svg_100" y="235" x="155" xlink:href="#p"/>
   <use id="svg_101" y="243" x="155" xlink:href="#p"/>
   <use id="svg_102" y="251" x="155" xlink:href="#p"/>
   <use id="svg_103" y="107" x="163" xlink:href="#p"/>
   <use id="svg_104" y="115" x="163" xlink:href="#p"/>
   <use id="svg_105" y="131" x="163" xlink:href="#p"/>
   <use id="svg_106" y="155" x="163" xlink:href="#p"/>
   <use id="svg_107" y="163" x="163" xlink:href="#p"/>
   <use id="svg_108" y="171" x="163" xlink:href="#p"/>
   <use id="svg_109" y="187" x="163" xlink:href="#p"/>
   <use id="svg_110" y="203" x="163" xlink:href="#p"/>
   <use id="svg_111" y="219" x="163" xlink:href="#p"/>
   <use id="svg_112" y="227" x="163" xlink:href="#p"/>
   <use id="svg_113" y="235" x="163" xlink:href="#p"/>
   <use id="svg_114" y="91" x="171" xlink:href="#p"/>
   <use id="svg_115" y="99" x="171" xlink:href="#p"/>
   <use id="svg_116" y="131" x="171" xlink:href="#p"/>
   <use id="svg_117" y="139" x="171" xlink:href="#p"/>
   <use id="svg_118" y="155" x="171" xlink:href="#p"/>
   <use id="svg_119" y="179" x="171" xlink:href="#p"/>
   <use id="svg_120" y="195" x="171" xlink:href="#p"/>
   <use id="svg_121" y="203" x="171" xlink:href="#p"/>
   <use id="svg_122" y="91" x="179" xlink:href="#p"/>
   <use id="svg_123" y="99" x="179" xlink:href="#p"/>
   <use id="svg_124" y="107" x="179" xlink:href="#p"/>
   <use id="svg_125" y="123" x="179" xlink:href="#p"/>
   <use id="svg_126" y="131" x="179" xlink:href="#p"/>
   <use id="svg_127" y="147" x="179" xlink:href="#p"/>
   <use id="svg_128" y="155" x="179" xlink:href="#p"/>
   <use id="svg_129" y="163" x="179" xlink:href="#p"/>
   <use id="svg_130" y="171" x="179" xlink:href="#p"/>
   <use id="svg_131" y="179" x="179" xlink:href="#p"/>
   <use id="svg_132" y="195" x="179" xlink:href="#p"/>
   <use id="svg_133" y="203" x="179" xlink:href="#p"/>
   <use id="svg_134" y="227" x="179" xlink:href="#p"/>
   <use id="svg_135" y="91" x="187" xlink:href="#p"/>
   <use id="svg_136" y="115" x="187" xlink:href="#p"/>
   <use id="svg_137" y="131" x="187" xlink:href="#p"/>
   <use id="svg_138" y="139" x="187" xlink:href="#p"/>
   <use id="svg_139" y="147" x="187" xlink:href="#p"/>
   <use id="svg_140" y="155" x="187" xlink:href="#p"/>
   <use id="svg_141" y="163" x="187" xlink:href="#p"/>
   <use id="svg_142" y="187" x="187" xlink:href="#p"/>
   <use id="svg_143" y="203" x="187" xlink:href="#p"/>
   <use id="svg_144" y="219" x="187" xlink:href="#p"/>
   <use id="svg_145" y="235" x="187" xlink:href="#p"/>
   <use id="svg_146" y="155" x="195" xlink:href="#p"/>
   <use id="svg_147" y="163" x="195" xlink:href="#p"/>
   <use id="svg_148" y="219" x="195" xlink:href="#p"/>
   <use id="svg_149" y="243" x="195" xlink:href="#p"/>
   <use id="svg_150" y="251" x="195" xlink:href="#p"/>
   <use id="svg_151" y="91" x="203" xlink:href="#p"/>
   <use id="svg_152" y="99" x="203" xlink:href="#p"/>
   <use id="svg_153" y="107" x="203" xlink:href="#p"/>
   <use id="svg_154" y="115" x="203" xlink:href="#p"/>
   <use id="svg_155" y="123" x="203" xlink:href="#p"/>
   <use id="svg_156" y="131" x="203" xlink:href="#p"/>
   <use id="svg_157" y="139" x="203" xlink:href="#p"/>
   <use id="svg_158" y="163" x="203" xlink:href="#p"/>
   <use id="svg_159" y="179" x="203" xlink:href="#p"/>
   <use id="svg_160" y="195" x="203" xlink:href="#p"/>
   <use id="svg_161" y="219" x="203" xlink:href="#p"/>
   <use id="svg_162" y="227" x="203" xlink:href="#p"/>
   <use id="svg_163" y="235" x="203" xlink:href="#p"/>
   <use id="svg_164" y="91" x="211" xlink:href="#p"/>
   <use id="svg_165" y="139" x="211" xlink:href="#p"/>
   <use id="svg_166" y="163" x="211" xlink:href="#p"/>
   <use id="svg_167" y="187" x="211" xlink:href="#p"/>
   <use id="svg_168" y="195" x="211" xlink:href="#p"/>
   <use id="svg_169" y="203" x="211" xlink:href="#p"/>
   <use id="svg_170" y="219" x="211" xlink:href="#p"/>
   <use id="svg_171" y="251" x="211" xlink:href="#p"/>
   <use id="svg_172" y="91" x="219" xlink:href="#p"/>
   <use id="svg_173" y="107" x="219" xlink:href="#p"/>
   <use id="svg_174" y="115" x="219" xlink:href="#p"/>
   <use id="svg_175" y="123" x="219" xlink:href="#p"/>
   <use id="svg_176" y="139" x="219" xlink:href="#p"/>
   <use id="svg_177" y="155" x="219" xlink:href="#p"/>
   <use id="svg_178" y="195" x="219" xlink:href="#p"/>
   <use id="svg_179" y="203" x="219" xlink:href="#p"/>
   <use id="svg_180" y="243" x="219" xlink:href="#p"/>
   <use id="svg_181" y="91" x="227" xlink:href="#p"/>
   <use id="svg_182" y="107" x="227" xlink:href="#p"/>
   <use id="svg_183" y="115" x="227" xlink:href="#p"/>
   <use id="svg_184" y="123" x="227" xlink:href="#p"/>
   <use id="svg_185" y="139" x="227" xlink:href="#p"/>
   <use id="svg_186" y="155" x="227" xlink:href="#p"/>
   <use id="svg_187" y="179" x="227" xlink:href="#p"/>
   <use id="svg_188" y="195" x="227" xlink:href="#p"/>
   <use id="svg_189" y="203" x="227" xlink:href="#p"/>
   <use id="svg_190" y="211" x="227" xlink:href="#p"/>
   <use id="svg_191" y="219" x="227" xlink:href="#p"/>
   <use id="svg_192" y="227" x="227" xlink:href="#p"/>
   <use id="svg_193" y="91" x="235" xlink:href="#p"/>
   <use id="svg_194" y="107" x="235" xlink:href="#p"/>
   <use id="svg_195" y="115" x="235" xlink:href="#p"/>
   <use id="svg_196" y="123" x="235" xlink:href="#p"/>
   <use id="svg_197" y="139" x="235" xlink:href="#p"/>
   <use id="svg_198" y="155" x="235" xlink:href="#p"/>
   <use id="svg_199" y="163" x="235" xlink:href="#p"/>
   <use id="svg_200" y="171" x="235" xlink:href="#p"/>
   <use id="svg_201" y="211" x="235" xlink:href="#p"/>
   <use id="svg_202" y="219" x="235" xlink:href="#p"/>
   <use id="svg_203" y="227" x="235" xlink:href="#p"/>
   <use id="svg_204" y="251" x="235" xlink:href="#p"/>
   <use id="svg_205" y="91" x="243" xlink:href="#p"/>
   <use id="svg_206" y="139" x="243" xlink:href="#p"/>
   <use id="svg_207" y="171" x="243" xlink:href="#p"/>
   <use id="svg_208" y="195" x="243" xlink:href="#p"/>
   <use id="svg_209" y="211" x="243" xlink:href="#p"/>
   <use id="svg_210" y="219" x="243" xlink:href="#p"/>
   <use id="svg_211" y="227" x="243" xlink:href="#p"/>
   <use id="svg_212" y="91" x="251" xlink:href="#p"/>
   <use id="svg_213" y="99" x="251" xlink:href="#p"/>
   <use id="svg_214" y="107" x="251" xlink:href="#p"/>
   <use id="svg_215" y="115" x="251" xlink:href="#p"/>
   <use id="svg_216" y="123" x="251" xlink:href="#p"/>
   <use id="svg_217" y="131" x="251" xlink:href="#p"/>
   <use id="svg_218" y="139" x="251" xlink:href="#p"/>
   <use id="svg_219" y="155" x="251" xlink:href="#p"/>
   <use id="svg_220" y="163" x="251" xlink:href="#p"/>
   <use id="svg_221" y="171" x="251" xlink:href="#p"/>
   <use id="svg_222" y="179" x="251" xlink:href="#p"/>
   <use id="svg_223" y="195" x="251" xlink:href="#p"/>
   <use id="svg_224" y="211" x="251" xlink:href="#p"/>
   <use id="svg_225" y="219" x="251" xlink:href="#p"/>
   <use id="svg_226" y="243" x="251" xlink:href="#p"/>
  </g>
  <g id="svg_227"/>
 </g>
</svg>