<svg width="455.99999999999994" height="455.99999999999994" xmlns="http://www.w3.org/2000/svg" xmlns:xlink="http://www.w3.org/1999/xlink">
 <defs>
  <rect height="8" width="8" id="p"/>
 </defs>
 <g>
  <title>Layer 1</title>
  <rect id="svg_1" fill="#ffffff" height="456" width="456"/>
  <g id="svg_2" fill="#000000">
   <use transform="matrix(1.87546, 0, 0, 1.87317, -191.667, -191.24)" id="svg_3" y="139.8131" x="139.76801" xlink:href="#p"/>
   <use transform="matrix(1.87546, 0, 0, 1.87317, -191.667, -191.24)" id="svg_4" y="147.8131" x="139.76801" xlink:href="#p"/>
   <use transform="matrix(1.87546, 0, 0, 1.87317, -191.667, -191.24)" id="svg_5" y="155.8131" x="139.76801" xlink:href="#p"/>
   <use transform="matrix(1.87546, 0, 0, 1.87317, -191.667, -191.24)" id="svg_6" y="163.8131" x="139.76801" xlink:href="#p"/>
   <use transform="matrix(1.87546, 0, 0, 1.87317, -191.667, -191.24)" id="svg_7" y="171.8131" x="139.76801" xlink:href="#p"/>
   <use transform="matrix(1.87546, 0, 0, 1.87317, -191.667, -191.24)" id="svg_8" y="179.8131" x="139.76801" xlink:href="#p"/>
   <use transform="matrix(1.87546, 0, 0, 1.87317, -191.667, -191.24)" id="svg_9" y="187.8131" x="139.76801" xlink:href="#p"/>
   <use transform="matrix(1.87546, 0, 0, 1.87317, -191.667, -191.24)" id="svg_10" y="203.8131" x="139.76801" xlink:href="#p"/>
   <use transform="matrix(1.87546, 0, 0, 1.87317, -191.667, -191.24)" id="svg_11" y="219.8131" x="139.76801" xlink:href="#p"/>
   <use transform="matrix(1.87546, 0, 0, 1.87317, -191.667, -191.24)" id="svg_12" y="227.8131" x="139.76801" xlink:href="#p"/>
   <use transform="matrix(1.87546, 0, 0, 1.87317, -191.667, -191.24)" id="svg_13" y="235.8131" x="139.76801" xlink:href="#p"/>
   <use transform="matrix(1.87546, 0, 0, 1.87317, -191.667, -191.24)" id="svg_14" y="251.8131" x="139.76801" xlink:href="#p"/>
   <use transform="matrix(1.87546, 0, 0, 1.87317, -191.667, -191.24)" id="svg_15" y="259.8131" x="139.76801" xlink:href="#p"/>
   <use transform="matrix(1.87546, 0, 0, 1.87317, -191.667, -191.24)" id="svg_16" y="267.8131" x="139.76801" xlink:href="#p"/>
   <use transform="matrix(1.87546, 0, 0, 1.87317, -191.667, -191.24)" id="svg_17" y="275.8131" x="139.76801" xlink:href="#p"/>
   <use transform="matrix(1.87546, 0, 0, 1.87317, -191.667, -191.24)" id="svg_18" y="283.8131" x="139.76801" xlink:href="#p"/>
   <use transform="matrix(1.87546, 0, 0, 1.87317, -191.667, -191.24)" id="svg_19" y="291.8131" x="139.76801" xlink:href="#p"/>
   <use transform="matrix(1.87546, 0, 0, 1.87317, -191.667, -191.24)" id="svg_20" y="299.8131" x="139.76801" xlink:href="#p"/>
   <use transform="matrix(1.87546, 0, 0, 1.87317, -191.667, -191.24)" id="svg_21" y="139.8131" x="147.76801" xlink:href="#p"/>
   <use transform="matrix(1.87546, 0, 0, 1.87317, -191.667, -191.24)" id="svg_22" y="187.8131" x="147.76801" xlink:href="#p"/>
   <use transform="matrix(1.87546, 0, 0, 1.87317, -191.667, -191.24)" id="svg_23" y="203.8131" x="147.76801" xlink:href="#p"/>
   <use transform="matrix(1.87546, 0, 0, 1.87317, -191.667, -191.24)" id="svg_24" y="211.8131" x="147.76801" xlink:href="#p"/>
   <use transform="matrix(1.87546, 0, 0, 1.87317, -191.667, -191.24)" id="svg_25" y="219.8131" x="147.76801" xlink:href="#p"/>
   <use transform="matrix(1.87546, 0, 0, 1.87317, -191.667, -191.24)" id="svg_26" y="251.8131" x="147.76801" xlink:href="#p"/>
   <use transform="matrix(1.87546, 0, 0, 1.87317, -191.667, -191.24)" id="svg_27" y="299.8131" x="147.76801" xlink:href="#p"/>
   <use transform="matrix(1.87546, 0, 0, 1.87317, -191.667, -191.24)" id="svg_28" y="139.8131" x="155.76801" xlink:href="#p"/>
   <use transform="matrix(1.87546, 0, 0, 1.87317, -191.667, -191.24)" id="svg_29" y="155.8131" x="155.76801" xlink:href="#p"/>
   <use transform="matrix(1.87546, 0, 0, 1.87317, -191.667, -191.24)" id="svg_30" y="163.8131" x="155.76801" xlink:href="#p"/>
   <use transform="matrix(1.87546, 0, 0, 1.87317, -191.667, -191.24)" id="svg_31" y="171.8131" x="155.76801" xlink:href="#p"/>
   <use transform="matrix(1.87546, 0, 0, 1.87317, -191.667, -191.24)" id="svg_32" y="187.8131" x="155.76801" xlink:href="#p"/>
   <use transform="matrix(1.87546, 0, 0, 1.87317, -191.667, -191.24)" id="svg_33" y="203.8131" x="155.76801" xlink:href="#p"/>
   <use transform="matrix(1.87546, 0, 0, 1.87317, -191.667, -191.24)" id="svg_34" y="227.8131" x="155.76801" xlink:href="#p"/>
   <use transform="matrix(1.87546, 0, 0, 1.87317, -191.667, -191.24)" id="svg_35" y="235.8131" x="155.76801" xlink:href="#p"/>
   <use transform="matrix(1.87546, 0, 0, 1.87317, -191.667, -191.24)" id="svg_36" y="251.8131" x="155.76801" xlink:href="#p"/>
   <use transform="matrix(1.87546, 0, 0, 1.87317, -191.667, -191.24)" id="svg_37" y="267.8131" x="155.76801" xlink:href="#p"/>
   <use transform="matrix(1.87546, 0, 0, 1.87317, -191.667, -191.24)" id="svg_38" y="275.8131" x="155.76801" xlink:href="#p"/>
   <use transform="matrix(1.87546, 0, 0, 1.87317, -191.667, -191.24)" id="svg_39" y="283.8131" x="155.76801" xlink:href="#p"/>
   <use transform="matrix(1.87546, 0, 0, 1.87317, -191.667, -191.24)" id="svg_40" y="299.8131" x="155.76801" xlink:href="#p"/>
   <use transform="matrix(1.87546, 0, 0, 1.87317, -191.667, -191.24)" id="svg_41" y="139.8131" x="163.76801" xlink:href="#p"/>
   <use transform="matrix(1.87546, 0, 0, 1.87317, -191.667, -191.24)" id="svg_42" y="155.8131" x="163.76801" xlink:href="#p"/>
   <use transform="matrix(1.87546, 0, 0, 1.87317, -191.667, -191.24)" id="svg_43" y="163.8131" x="163.76801" xlink:href="#p"/>
   <use transform="matrix(1.87546, 0, 0, 1.87317, -191.667, -191.24)" id="svg_44" y="171.8131" x="163.76801" xlink:href="#p"/>
   <use transform="matrix(1.87546, 0, 0, 1.87317, -191.667, -191.24)" id="svg_45" y="187.8131" x="163.76801" xlink:href="#p"/>
   <use transform="matrix(1.87546, 0, 0, 1.87317, -191.667, -191.24)" id="svg_46" y="203.8131" x="163.76801" xlink:href="#p"/>
   <use transform="matrix(1.87546, 0, 0, 1.87317, -191.667, -191.24)" id="svg_47" y="227.8131" x="163.76801" xlink:href="#p"/>
   <use transform="matrix(1.87546, 0, 0, 1.87317, -191.667, -191.24)" id="svg_48" y="251.8131" x="163.76801" xlink:href="#p"/>
   <use transform="matrix(1.87546, 0, 0, 1.87317, -191.667, -191.24)" id="svg_49" y="267.8131" x="163.76801" xlink:href="#p"/>
   <use transform="matrix(1.87546, 0, 0, 1.87317, -191.667, -191.24)" id="svg_50" y="275.8131" x="163.76801" xlink:href="#p"/>
   <use transform="matrix(1.87546, 0, 0, 1.87317, -191.667, -191.24)" id="svg_51" y="283.8131" x="163.76801" xlink:href="#p"/>
   <use transform="matrix(1.87546, 0, 0, 1.87317, -191.667, -191.24)" id="svg_52" y="299.8131" x="163.76801" xlink:href="#p"/>
   <use transform="matrix(1.87546, 0, 0, 1.87317, -191.667, -191.24)" id="svg_53" y="139.8131" x="171.76801" xlink:href="#p"/>
   <use transform="matrix(1.87546, 0, 0, 1.87317, -191.667, -191.24)" id="svg_54" y="155.8131" x="171.76801" xlink:href="#p"/>
   <use transform="matrix(1.87546, 0, 0, 1.87317, -191.667, -191.24)" id="svg_55" y="163.8131" x="171.76801" xlink:href="#p"/>
   <use transform="matrix(1.87546, 0, 0, 1.87317, -191.667, -191.24)" id="svg_56" y="171.8131" x="171.76801" xlink:href="#p"/>
   <use transform="matrix(1.87546, 0, 0, 1.87317, -191.667, -191.24)" id="svg_57" y="187.8131" x="171.76801" xlink:href="#p"/>
   <use transform="matrix(1.87546, 0, 0, 1.87317, -191.667, -191.24)" id="svg_58" y="227.8131" x="171.76801" xlink:href="#p"/>
   <use transform="matrix(1.87546, 0, 0, 1.87317, -191.667, -191.24)" id="svg_59" y="235.8131" x="171.76801" xlink:href="#p"/>
   <use transform="matrix(1.87546, 0, 0, 1.87317, -191.667, -191.24)" id="svg_60" y="251.8131" x="171.76801" xlink:href="#p"/>
   <use transform="matrix(1.87546, 0, 0, 1.87317, -191.667, -191.24)" id="svg_61" y="267.8131" x="171.76801" xlink:href="#p"/>
   <use transform="matrix(1.87546, 0, 0, 1.87317, -191.667, -191.24)" id="svg_62" y="275.8131" x="171.76801" xlink:href="#p"/>
   <use transform="matrix(1.87546, 0, 0, 1.87317, -191.667, -191.24)" id="svg_63" y="283.8131" x="171.76801" xlink:href="#p"/>
   <use transform="matrix(1.87546, 0, 0, 1.87317, -191.667, -191.24)" id="svg_64" y="299.8131" x="171.76801" xlink:href="#p"/>
   <use transform="matrix(1.87546, 0, 0, 1.87317, -191.667, -191.24)" id="svg_65" y="139.8131" x="179.76801" xlink:href="#p"/>
   <use transform="matrix(1.87546, 0, 0, 1.87317, -191.667, -191.24)" id="svg_66" y="187.8131" x="179.76801" xlink:href="#p"/>
   <use transform="matrix(1.87546, 0, 0, 1.87317, -191.667, -191.24)" id="svg_67" y="211.8131" x="179.76801" xlink:href="#p"/>
   <use transform="matrix(1.87546, 0, 0, 1.87317, -191.667, -191.24)" id="svg_68" y="251.8131" x="179.76801" xlink:href="#p"/>
   <use transform="matrix(1.87546, 0, 0, 1.87317, -191.667, -191.24)" id="svg_69" y="299.8131" x="179.76801" xlink:href="#p"/>
   <use transform="matrix(1.87546, 0, 0, 1.87317, -191.667, -191.24)" id="svg_70" y="139.8131" x="187.76801" xlink:href="#p"/>
   <use transform="matrix(1.87546, 0, 0, 1.87317, -191.667, -191.24)" id="svg_71" y="147.8131" x="187.76801" xlink:href="#p"/>
   <use transform="matrix(1.87546, 0, 0, 1.87317, -191.667, -191.24)" id="svg_72" y="155.8131" x="187.76801" xlink:href="#p"/>
   <use transform="matrix(1.87546, 0, 0, 1.87317, -191.667, -191.24)" id="svg_73" y="163.8131" x="187.76801" xlink:href="#p"/>
   <use transform="matrix(1.87546, 0, 0, 1.87317, -191.667, -191.24)" id="svg_74" y="171.8131" x="187.76801" xlink:href="#p"/>
   <use transform="matrix(1.87546, 0, 0, 1.87317, -191.667, -191.24)" id="svg_75" y="179.8131" x="187.76801" xlink:href="#p"/>
   <use transform="matrix(1.87546, 0, 0, 1.87317, -191.667, -191.24)" id="svg_76" y="187.8131" x="187.76801" xlink:href="#p"/>
   <use transform="matrix(1.87546, 0, 0, 1.87317, -191.667, -191.24)" id="svg_77" y="203.8131" x="187.76801" xlink:href="#p"/>
   <use transform="matrix(1.87546, 0, 0, 1.87317, -191.667, -191.24)" id="svg_78" y="219.8131" x="187.76801" xlink:href="#p"/>
   <use transform="matrix(1.87546, 0, 0, 1.87317, -191.667, -191.24)" id="svg_79" y="235.8131" x="187.76801" xlink:href="#p"/>
   <use transform="matrix(1.87546, 0, 0, 1.87317, -191.667, -191.24)" id="svg_80" y="251.8131" x="187.76801" xlink:href="#p"/>
   <use transform="matrix(1.87546, 0, 0, 1.87317, -191.667, -191.24)" id="svg_81" y="259.8131" x="187.76801" xlink:href="#p"/>
   <use transform="matrix(1.87546, 0, 0, 1.87317, -191.667, -191.24)" id="svg_82" y="267.8131" x="187.76801" xlink:href="#p"/>
   <use transform="matrix(1.87546, 0, 0, 1.87317, -191.667, -191.24)" id="svg_83" y="275.8131" x="187.76801" xlink:href="#p"/>
   <use transform="matrix(1.87546, 0, 0, 1.87317, -191.667, -191.24)" id="svg_84" y="283.8131" x="187.76801" xlink:href="#p"/>
   <use transform="matrix(1.87546, 0, 0, 1.87317, -191.667, -191.24)" id="svg_85" y="291.8131" x="187.76801" xlink:href="#p"/>
   <use transform="matrix(1.87546, 0, 0, 1.87317, -191.667, -191.24)" id="svg_86" y="299.8131" x="187.76801" xlink:href="#p"/>
   <use transform="matrix(1.87546, 0, 0, 1.87317, -191.667, -191.24)" id="svg_87" y="211.8131" x="195.76801" xlink:href="#p"/>
   <use transform="matrix(1.87546, 0, 0, 1.87317, -191.667, -191.24)" id="svg_88" y="219.8131" x="195.76801" xlink:href="#p"/>
   <use transform="matrix(1.87546, 0, 0, 1.87317, -191.667, -191.24)" id="svg_89" y="227.8131" x="195.76801" xlink:href="#p"/>
   <use transform="matrix(1.87546, 0, 0, 1.87317, -191.667, -191.24)" id="svg_90" y="235.8131" x="195.76801" xlink:href="#p"/>
   <use transform="matrix(1.87546, 0, 0, 1.87317, -191.667, -191.24)" id="svg_91" y="139.8131" x="203.76801" xlink:href="#p"/>
   <use transform="matrix(1.87546, 0, 0, 1.87317, -191.667, -191.24)" id="svg_92" y="155.8131" x="203.76801" xlink:href="#p"/>
   <use transform="matrix(1.87546, 0, 0, 1.87317, -191.667, -191.24)" id="svg_93" y="163.8131" x="203.76801" xlink:href="#p"/>
   <use transform="matrix(1.87546, 0, 0, 1.87317, -191.667, -191.24)" id="svg_94" y="171.8131" x="203.76801" xlink:href="#p"/>
   <use transform="matrix(1.87546, 0, 0, 1.87317, -191.667, -191.24)" id="svg_95" y="187.8131" x="203.76801" xlink:href="#p"/>
   <use transform="matrix(1.87546, 0, 0, 1.87317, -191.667, -191.24)" id="svg_96" y="203.8131" x="203.76801" xlink:href="#p"/>
   <use transform="matrix(1.87546, 0, 0, 1.87317, -191.667, -191.24)" id="svg_97" y="219.8131" x="203.76801" xlink:href="#p"/>
   <use transform="matrix(1.87546, 0, 0, 1.87317, -191.667, -191.24)" id="svg_98" y="243.8131" x="203.76801" xlink:href="#p"/>
   <use transform="matrix(1.87546, 0, 0, 1.87317, -191.667, -191.24)" id="svg_99" y="275.8131" x="203.76801" xlink:href="#p"/>
   <use transform="matrix(1.87546, 0, 0, 1.87317, -191.667, -191.24)" id="svg_100" y="283.8131" x="203.76801" xlink:href="#p"/>
   <use transform="matrix(1.87546, 0, 0, 1.87317, -191.667, -191.24)" id="svg_101" y="291.8131" x="203.76801" xlink:href="#p"/>
   <use transform="matrix(1.87546, 0, 0, 1.87317, -191.667, -191.24)" id="svg_102" y="299.8131" x="203.76801" xlink:href="#p"/>
   <use transform="matrix(1.87546, 0, 0, 1.87317, -191.667, -191.24)" id="svg_103" y="155.8131" x="211.76801" xlink:href="#p"/>
   <use transform="matrix(1.87546, 0, 0, 1.87317, -191.667, -191.24)" id="svg_104" y="163.8131" x="211.76801" xlink:href="#p"/>
   <use transform="matrix(1.87546, 0, 0, 1.87317, -191.667, -191.24)" id="svg_105" y="179.8131" x="211.76801" xlink:href="#p"/>
   <use transform="matrix(1.87546, 0, 0, 1.87317, -191.667, -191.24)" id="svg_106" y="203.8131" x="211.76801" xlink:href="#p"/>
   <use transform="matrix(1.87546, 0, 0, 1.87317, -191.667, -191.24)" id="svg_107" y="211.8131" x="211.76801" xlink:href="#p"/>
   <use transform="matrix(1.87546, 0, 0, 1.87317, -191.667, -191.24)" id="svg_108" y="219.8131" x="211.76801" xlink:href="#p"/>
   <use transform="matrix(1.87546, 0, 0, 1.87317, -191.667, -191.24)" id="svg_109" y="235.8131" x="211.76801" xlink:href="#p"/>
   <use transform="matrix(1.87546, 0, 0, 1.87317, -191.667, -191.24)" id="svg_110" y="251.8131" x="211.76801" xlink:href="#p"/>
   <use transform="matrix(1.87546, 0, 0, 1.87317, -191.667, -191.24)" id="svg_111" y="267.8131" x="211.76801" xlink:href="#p"/>
   <use transform="matrix(1.87546, 0, 0, 1.87317, -191.667, -191.24)" id="svg_112" y="275.8131" x="211.76801" xlink:href="#p"/>
   <use transform="matrix(1.87546, 0, 0, 1.87317, -191.667, -191.24)" id="svg_113" y="283.8131" x="211.76801" xlink:href="#p"/>
   <use transform="matrix(1.87546, 0, 0, 1.87317, -191.667, -191.24)" id="svg_114" y="139.8131" x="219.76801" xlink:href="#p"/>
   <use transform="matrix(1.87546, 0, 0, 1.87317, -191.667, -191.24)" id="svg_115" y="147.8131" x="219.76801" xlink:href="#p"/>
   <use transform="matrix(1.87546, 0, 0, 1.87317, -191.667, -191.24)" id="svg_116" y="179.8131" x="219.76801" xlink:href="#p"/>
   <use transform="matrix(1.87546, 0, 0, 1.87317, -191.667, -191.24)" id="svg_117" y="187.8131" x="219.76801" xlink:href="#p"/>
   <use transform="matrix(1.87546, 0, 0, 1.87317, -191.667, -191.24)" id="svg_118" y="203.8131" x="219.76801" xlink:href="#p"/>
   <use transform="matrix(1.87546, 0, 0, 1.87317, -191.667, -191.24)" id="svg_119" y="227.8131" x="219.76801" xlink:href="#p"/>
   <use transform="matrix(1.87546, 0, 0, 1.87317, -191.667, -191.24)" id="svg_120" y="243.8131" x="219.76801" xlink:href="#p"/>
   <use transform="matrix(1.87546, 0, 0, 1.87317, -191.667, -191.24)" id="svg_121" y="251.8131" x="219.76801" xlink:href="#p"/>
   <use transform="matrix(1.87546, 0, 0, 1.87317, -191.667, -191.24)" id="svg_122" y="139.8131" x="227.76801" xlink:href="#p"/>
   <use transform="matrix(1.87546, 0, 0, 1.87317, -191.667, -191.24)" id="svg_123" y="147.8131" x="227.76801" xlink:href="#p"/>
   <use transform="matrix(1.87546, 0, 0, 1.87317, -191.667, -191.24)" id="svg_124" y="155.8131" x="227.76801" xlink:href="#p"/>
   <use transform="matrix(1.87546, 0, 0, 1.87317, -191.667, -191.24)" id="svg_125" y="171.8131" x="227.76801" xlink:href="#p"/>
   <use transform="matrix(1.87546, 0, 0, 1.87317, -191.667, -191.24)" id="svg_126" y="179.8131" x="227.76801" xlink:href="#p"/>
   <use transform="matrix(1.87546, 0, 0, 1.87317, -191.667, -191.24)" id="svg_127" y="195.8131" x="227.76801" xlink:href="#p"/>
   <use transform="matrix(1.87546, 0, 0, 1.87317, -191.667, -191.24)" id="svg_128" y="203.8131" x="227.76801" xlink:href="#p"/>
   <use transform="matrix(1.87546, 0, 0, 1.87317, -191.667, -191.24)" id="svg_129" y="211.8131" x="227.76801" xlink:href="#p"/>
   <use transform="matrix(1.87546, 0, 0, 1.87317, -191.667, -191.24)" id="svg_130" y="219.8131" x="227.76801" xlink:href="#p"/>
   <use transform="matrix(1.87546, 0, 0, 1.87317, -191.667, -191.24)" id="svg_131" y="227.8131" x="227.76801" xlink:href="#p"/>
   <use transform="matrix(1.87546, 0, 0, 1.87317, -191.667, -191.24)" id="svg_132" y="243.8131" x="227.76801" xlink:href="#p"/>
   <use transform="matrix(1.87546, 0, 0, 1.87317, -191.667, -191.24)" id="svg_133" y="251.8131" x="227.76801" xlink:href="#p"/>
   <use transform="matrix(1.87546, 0, 0, 1.87317, -191.667, -191.24)" id="svg_134" y="275.8131" x="227.76801" xlink:href="#p"/>
   <use transform="matrix(1.87546, 0, 0, 1.87317, -191.667, -191.24)" id="svg_135" y="139.8131" x="235.76801" xlink:href="#p"/>
   <use transform="matrix(1.87546, 0, 0, 1.87317, -191.667, -191.24)" id="svg_136" y="163.8131" x="235.76801" xlink:href="#p"/>
   <use transform="matrix(1.87546, 0, 0, 1.87317, -191.667, -191.24)" id="svg_137" y="179.8131" x="235.76801" xlink:href="#p"/>
   <use transform="matrix(1.87546, 0, 0, 1.87317, -191.667, -191.24)" id="svg_138" y="187.8131" x="235.76801" xlink:href="#p"/>
   <use transform="matrix(1.87546, 0, 0, 1.87317, -191.667, -191.24)" id="svg_139" y="195.8131" x="235.76801" xlink:href="#p"/>
   <use transform="matrix(1.87546, 0, 0, 1.87317, -191.667, -191.24)" id="svg_140" y="203.8131" x="235.76801" xlink:href="#p"/>
   <use transform="matrix(1.87546, 0, 0, 1.87317, -191.667, -191.24)" id="svg_141" y="211.8131" x="235.76801" xlink:href="#p"/>
   <use transform="matrix(1.87546, 0, 0, 1.87317, -191.667, -191.24)" id="svg_142" y="235.8131" x="235.76801" xlink:href="#p"/>
   <use transform="matrix(1.87546, 0, 0, 1.87317, -191.667, -191.24)" id="svg_143" y="251.8131" x="235.76801" xlink:href="#p"/>
   <use transform="matrix(1.87546, 0, 0, 1.87317, -191.667, -191.24)" id="svg_144" y="267.8131" x="235.76801" xlink:href="#p"/>
   <use transform="matrix(1.87546, 0, 0, 1.87317, -191.667, -191.24)" id="svg_145" y="283.8131" x="235.76801" xlink:href="#p"/>
   <use transform="matrix(1.87546, 0, 0, 1.87317, -191.667, -191.24)" id="svg_146" y="203.8131" x="243.76801" xlink:href="#p"/>
   <use transform="matrix(1.87546, 0, 0, 1.87317, -191.667, -191.24)" id="svg_147" y="211.8131" x="243.76801" xlink:href="#p"/>
   <use transform="matrix(1.87546, 0, 0, 1.87317, -191.667, -191.24)" id="svg_148" y="267.8131" x="243.76801" xlink:href="#p"/>
   <use transform="matrix(1.87546, 0, 0, 1.87317, -191.667, -191.24)" id="svg_149" y="291.8131" x="243.76801" xlink:href="#p"/>
   <use transform="matrix(1.87546, 0, 0, 1.87317, -191.667, -191.24)" id="svg_150" y="299.8131" x="243.76801" xlink:href="#p"/>
   <use transform="matrix(1.87546, 0, 0, 1.87317, -191.667, -191.24)" id="svg_151" y="139.8131" x="251.76801" xlink:href="#p"/>
   <use transform="matrix(1.87546, 0, 0, 1.87317, -191.667, -191.24)" id="svg_152" y="147.8131" x="251.76801" xlink:href="#p"/>
   <use transform="matrix(1.87546, 0, 0, 1.87317, -191.667, -191.24)" id="svg_153" y="155.8131" x="251.76801" xlink:href="#p"/>
   <use transform="matrix(1.87546, 0, 0, 1.87317, -191.667, -191.24)" id="svg_154" y="163.8131" x="251.76801" xlink:href="#p"/>
   <use transform="matrix(1.87546, 0, 0, 1.87317, -191.667, -191.24)" id="svg_155" y="171.8131" x="251.76801" xlink:href="#p"/>
   <use transform="matrix(1.87546, 0, 0, 1.87317, -191.667, -191.24)" id="svg_156" y="179.8131" x="251.76801" xlink:href="#p"/>
   <use transform="matrix(1.87546, 0, 0, 1.87317, -191.667, -191.24)" id="svg_157" y="187.8131" x="251.76801" xlink:href="#p"/>
   <use transform="matrix(1.87546, 0, 0, 1.87317, -191.667, -191.24)" id="svg_158" y="211.8131" x="251.76801" xlink:href="#p"/>
   <use transform="matrix(1.87546, 0, 0, 1.87317, -191.667, -191.24)" id="svg_159" y="227.8131" x="251.76801" xlink:href="#p"/>
   <use transform="matrix(1.87546, 0, 0, 1.87317, -191.667, -191.24)" id="svg_160" y="243.8131" x="251.76801" xlink:href="#p"/>
   <use transform="matrix(1.87546, 0, 0, 1.87317, -191.667, -191.24)" id="svg_161" y="267.8131" x="251.76801" xlink:href="#p"/>
   <use transform="matrix(1.87546, 0, 0, 1.87317, -191.667, -191.24)" id="svg_162" y="275.8131" x="251.76801" xlink:href="#p"/>
   <use transform="matrix(1.87546, 0, 0, 1.87317, -191.667, -191.24)" id="svg_163" y="283.8131" x="251.76801" xlink:href="#p"/>
   <use transform="matrix(1.87546, 0, 0, 1.87317, -191.667, -191.24)" id="svg_164" y="139.8131" x="259.76801" xlink:href="#p"/>
   <use transform="matrix(1.87546, 0, 0, 1.87317, -191.667, -191.24)" id="svg_165" y="187.8131" x="259.76801" xlink:href="#p"/>
   <use transform="matrix(1.87546, 0, 0, 1.87317, -191.667, -191.24)" id="svg_166" y="211.8131" x="259.76801" xlink:href="#p"/>
   <use transform="matrix(1.87546, 0, 0, 1.87317, -191.667, -191.24)" id="svg_167" y="235.8131" x="259.76801" xlink:href="#p"/>
   <use transform="matrix(1.87546, 0, 0, 1.87317, -191.667, -191.24)" id="svg_168" y="243.8131" x="259.76801" xlink:href="#p"/>
   <use transform="matrix(1.87546, 0, 0, 1.87317, -191.667, -191.24)" id="svg_169" y="251.8131" x="259.76801" xlink:href="#p"/>
   <use transform="matrix(1.87546, 0, 0, 1.87317, -191.667, -191.24)" id="svg_170" y="267.8131" x="259.76801" xlink:href="#p"/>
   <use transform="matrix(1.87546, 0, 0, 1.87317, -191.667, -191.24)" id="svg_171" y="299.8131" x="259.76801" xlink:href="#p"/>
   <use transform="matrix(1.87546, 0, 0, 1.87317, -191.667, -191.24)" id="svg_172" y="139.8131" x="267.76801" xlink:href="#p"/>
   <use transform="matrix(1.87546, 0, 0, 1.87317, -191.667, -191.24)" id="svg_173" y="155.8131" x="267.76801" xlink:href="#p"/>
   <use transform="matrix(1.87546, 0, 0, 1.87317, -191.667, -191.24)" id="svg_174" y="163.8131" x="267.76801" xlink:href="#p"/>
   <use transform="matrix(1.87546, 0, 0, 1.87317, -191.667, -191.24)" id="svg_175" y="171.8131" x="267.76801" xlink:href="#p"/>
   <use transform="matrix(1.87546, 0, 0, 1.87317, -191.667, -191.24)" id="svg_176" y="187.8131" x="267.76801" xlink:href="#p"/>
   <use transform="matrix(1.87546, 0, 0, 1.87317, -191.667, -191.24)" id="svg_177" y="203.8131" x="267.76801" xlink:href="#p"/>
   <use transform="matrix(1.87546, 0, 0, 1.87317, -191.667, -191.24)" id="svg_178" y="243.8131" x="267.76801" xlink:href="#p"/>
   <use transform="matrix(1.87546, 0, 0, 1.87317, -191.667, -191.24)" id="svg_179" y="251.8131" x="267.76801" xlink:href="#p"/>
   <use transform="matrix(1.87546, 0, 0, 1.87317, -191.667, -191.24)" id="svg_180" y="291.8131" x="267.76801" xlink:href="#p"/>
   <use transform="matrix(1.87546, 0, 0, 1.87317, -191.667, -191.24)" id="svg_181" y="139.8131" x="275.76801" xlink:href="#p"/>
   <use transform="matrix(1.87546, 0, 0, 1.87317, -191.667, -191.24)" id="svg_182" y="155.8131" x="275.76801" xlink:href="#p"/>
   <use transform="matrix(1.87546, 0, 0, 1.87317, -191.667, -191.24)" id="svg_183" y="163.8131" x="275.76801" xlink:href="#p"/>
   <use transform="matrix(1.87546, 0, 0, 1.87317, -191.667, -191.24)" id="svg_184" y="171.8131" x="275.76801" xlink:href="#p"/>
   <use transform="matrix(1.87546, 0, 0, 1.87317, -191.667, -191.24)" id="svg_185" y="187.8131" x="275.76801" xlink:href="#p"/>
   <use transform="matrix(1.87546, 0, 0, 1.87317, -191.667, -191.24)" id="svg_186" y="203.8131" x="275.76801" xlink:href="#p"/>
   <use transform="matrix(1.87546, 0, 0, 1.87317, -191.667, -191.24)" id="svg_187" y="227.8131" x="275.76801" xlink:href="#p"/>
   <use transform="matrix(1.87546, 0, 0, 1.87317, -191.667, -191.24)" id="svg_188" y="243.8131" x="275.76801" xlink:href="#p"/>
   <use transform="matrix(1.87546, 0, 0, 1.87317, -191.667, -191.24)" id="svg_189" y="251.8131" x="275.76801" xlink:href="#p"/>
   <use transform="matrix(1.87546, 0, 0, 1.87317, -191.667, -191.24)" id="svg_190" y="259.8131" x="275.76801" xlink:href="#p"/>
   <use transform="matrix(1.87546, 0, 0, 1.87317, -191.667, -191.24)" id="svg_191" y="267.8131" x="275.76801" xlink:href="#p"/>
   <use transform="matrix(1.87546, 0, 0, 1.87317, -191.667, -191.24)" id="svg_192" y="275.8131" x="275.76801" xlink:href="#p"/>
   <use transform="matrix(1.87546, 0, 0, 1.87317, -191.667, -191.24)" id="svg_193" y="139.8131" x="283.76801" xlink:href="#p"/>
   <use transform="matrix(1.87546, 0, 0, 1.87317, -191.667, -191.24)" id="svg_194" y="155.8131" x="283.76801" xlink:href="#p"/>
   <use transform="matrix(1.87546, 0, 0, 1.87317, -191.667, -191.24)" id="svg_195" y="163.8131" x="283.76801" xlink:href="#p"/>
   <use transform="matrix(1.87546, 0, 0, 1.87317, -191.667, -191.24)" id="svg_196" y="171.8131" x="283.76801" xlink:href="#p"/>
   <use transform="matrix(1.87546, 0, 0, 1.87317, -191.667, -191.24)" id="svg_197" y="187.8131" x="283.76801" xlink:href="#p"/>
   <use transform="matrix(1.87546, 0, 0, 1.87317, -191.667, -191.24)" id="svg_198" y="203.8131" x="283.76801" xlink:href="#p"/>
   <use transform="matrix(1.87546, 0, 0, 1.87317, -191.667, -191.24)" id="svg_199" y="211.8131" x="283.76801" xlink:href="#p"/>
   <use transform="matrix(1.87546, 0, 0, 1.87317, -191.667, -191.24)" id="svg_200" y="219.8131" x="283.76801" xlink:href="#p"/>
   <use transform="matrix(1.87546, 0, 0, 1.87317, -191.667, -191.24)" id="svg_201" y="259.8131" x="283.76801" xlink:href="#p"/>
   <use transform="matrix(1.87546, 0, 0, 1.87317, -191.667, -191.24)" id="svg_202" y="267.8131" x="283.76801" xlink:href="#p"/>
   <use transform="matrix(1.87546, 0, 0, 1.87317, -191.667, -191.24)" id="svg_203" y="275.8131" x="283.76801" xlink:href="#p"/>
   <use transform="matrix(1.87546, 0, 0, 1.87317, -191.667, -191.24)" id="svg_204" y="299.8131" x="283.76801" xlink:href="#p"/>
   <use transform="matrix(1.87546, 0, 0, 1.87317, -191.667, -191.24)" id="svg_205" y="139.8131" x="291.76801" xlink:href="#p"/>
   <use transform="matrix(1.87546, 0, 0, 1.87317, -191.667, -191.24)" id="svg_206" y="187.8131" x="291.76801" xlink:href="#p"/>
   <use transform="matrix(1.87546, 0, 0, 1.87317, -191.667, -191.24)" id="svg_207" y="219.8131" x="291.76801" xlink:href="#p"/>
   <use transform="matrix(1.87546, 0, 0, 1.87317, -191.667, -191.24)" id="svg_208" y="243.8131" x="291.76801" xlink:href="#p"/>
   <use transform="matrix(1.87546, 0, 0, 1.87317, -191.667, -191.24)" id="svg_209" y="259.8131" x="291.76801" xlink:href="#p"/>
   <use transform="matrix(1.87546, 0, 0, 1.87317, -191.667, -191.24)" id="svg_210" y="267.8131" x="291.76801" xlink:href="#p"/>
   <use transform="matrix(1.87546, 0, 0, 1.87317, -191.667, -191.24)" id="svg_211" y="275.8131" x="291.76801" xlink:href="#p"/>
   <use transform="matrix(1.87546, 0, 0, 1.87317, -191.667, -191.24)" id="svg_212" y="139.8131" x="299.76801" xlink:href="#p"/>
   <use transform="matrix(1.87546, 0, 0, 1.87317, -191.667, -191.24)" id="svg_213" y="147.8131" x="299.76801" xlink:href="#p"/>
   <use transform="matrix(1.87546, 0, 0, 1.87317, -191.667, -191.24)" id="svg_214" y="155.8131" x="299.76801" xlink:href="#p"/>
   <use transform="matrix(1.87546, 0, 0, 1.87317, -191.667, -191.24)" id="svg_215" y="163.8131" x="299.76801" xlink:href="#p"/>
   <use transform="matrix(1.87546, 0, 0, 1.87317, -191.667, -191.24)" id="svg_216" y="171.8131" x="299.76801" xlink:href="#p"/>
   <use transform="matrix(1.87546, 0, 0, 1.87317, -191.667, -191.24)" id="svg_217" y="179.8131" x="299.76801" xlink:href="#p"/>
   <use transform="matrix(1.87546, 0, 0, 1.87317, -191.667, -191.24)" id="svg_218" y="187.8131" x="299.76801" xlink:href="#p"/>
   <use transform="matrix(1.87546, 0, 0, 1.87317, -191.667, -191.24)" id="svg_219" y="203.8131" x="299.76801" xlink:href="#p"/>
   <use transform="matrix(1.87546, 0, 0, 1.87317, -191.667, -191.24)" id="svg_220" y="211.8131" x="299.76801" xlink:href="#p"/>
   <use transform="matrix(1.87546, 0, 0, 1.87317, -191.667, -191.24)" id="svg_221" y="219.8131" x="299.76801" xlink:href="#p"/>
   <use transform="matrix(1.87546, 0, 0, 1.87317, -191.667, -191.24)" id="svg_222" y="227.8131" x="299.76801" xlink:href="#p"/>
   <use transform="matrix(1.87546, 0, 0, 1.87317, -191.667, -191.24)" id="svg_223" y="243.8131" x="299.76801" xlink:href="#p"/>
   <use transform="matrix(1.87546, 0, 0, 1.87317, -191.667, -191.24)" id="svg_224" y="259.8131" x="299.76801" xlink:href="#p"/>
   <use transform="matrix(1.87546, 0, 0, 1.87317, -191.667, -191.24)" id="svg_225" y="267.8131" x="299.76801" xlink:href="#p"/>
   <use transform="matrix(1.87546, 0, 0, 1.87317, -191.667, -191.24)" id="svg_226" y="291.8131" x="299.76801" xlink:href="#p"/>
  </g>
  <g id="svg_227"/>
 </g>
</svg>